<?xml version="1.0" encoding="UTF-8" standalone="no"?>
<svg
   xmlns:dc="http://purl.org/dc/elements/1.1/"
   xmlns:cc="http://creativecommons.org/ns#"
   xmlns:rdf="http://www.w3.org/1999/02/22-rdf-syntax-ns#"
   xmlns:svg="http://www.w3.org/2000/svg"
   xmlns="http://www.w3.org/2000/svg"
   viewBox="0 0 571.53485 571.53485"
   height="571.53485"
   width="571.53485"
   id="svg10"
   version="1.1">
  <metadata
     id="metadata16">
    <rdf:RDF>
      <cc:Work
         rdf:about="">
        <dc:format>image/svg+xml</dc:format>
        <dc:type
           rdf:resource="http://purl.org/dc/dcmitype/StillImage" />
        <dc:title></dc:title>
      </cc:Work>
    </rdf:RDF>
  </metadata>
  <defs
     id="defs14">
    <filter
       id="filter24"
       style="color-interpolation-filters:sRGB;">
      <feConvolveMatrix
         id="feConvolveMatrix20"
         result="result1"
         order="3 3"
         kernelMatrix="0 -0.3 0 -0.3 2.2 -0.3 0 -0.3 0"
         divisor="1"
         in="SourceGraphic"
         targetX="1"
         targetY="1" />
      <feBlend
         id="feBlend22"
         result="result2"
         mode="normal"
         in2="SourceGraphic" />
    </filter>
  </defs>
  <path
     id="path26"
     d="m 261.91781,569.55063 c -19.50674,-3.53155 -36.37739,-12.20753 -43.13787,-22.18429 l -3.62791,-5.35388 V 449.76435 357.51624 L 107.95717,250.35564 0.762311,143.19503 1.073453,111.38107 C 1.38079,79.956052 1.418651,79.500433 4.170443,74.111912 19.845286,43.417645 89.383058,16.714901 183.19504,5.3658535 c 36.63613,-4.432113 49.36888,-5.054539 103.39884,-5.054539 54.02997,0 66.76272,0.622426 103.39885,5.054539 93.81197,11.3490475 163.34974,38.0517915 179.02459,68.7460585 2.75179,5.388521 2.78966,5.84414 3.09699,37.269158 l 0.31114,31.81396 -107.19485,107.16061 -107.19486,107.1606 v 92.24811 92.24811 l -3.62791,5.35388 c -6.9249,10.21939 -23.73666,18.71487 -44.04231,22.25588 -11.82009,2.06125 -36.87129,2.02424 -48.44771,-0.0716 z m 95.00165,-430.18977 c 67.20146,-6.46498 119.97371,-18.39595 153.48837,-34.7013 12.01645,-5.84616 22.32558,-13.051549 22.32558,-15.604065 0,-2.552516 -10.30913,-9.757901 -22.32558,-15.604069 -34.02489,-16.553578 -88.7522,-28.798692 -155.72093,-34.842212 -21.98519,-1.984031 -114.20084,-1.984031 -136.18603,0 -66.96873,6.04352 -121.696041,18.288634 -155.720932,34.842212 -12.016449,5.846168 -22.32558,13.051553 -22.32558,15.604069 0,2.552516 10.309131,9.757905 22.32558,15.604065 34.278611,16.67701 94.702542,30.0953 155.720932,34.58076 8.90232,0.65442 18.19534,1.37864 20.65116,1.6094 9.52532,0.89501 105.61537,-0.31979 117.76743,-1.48886 z"
     style="fill:#000000;stroke-width:1.11627901" />
</svg>
