<?xml version="1.0" encoding="UTF-8" standalone="no"?>
<!-- Created with Inkscape (http://www.inkscape.org/) -->

<svg
   xmlns:dc="http://purl.org/dc/elements/1.1/"
   xmlns:cc="http://creativecommons.org/ns#"
   xmlns:rdf="http://www.w3.org/1999/02/22-rdf-syntax-ns#"
   xmlns:svg="http://www.w3.org/2000/svg"
   xmlns="http://www.w3.org/2000/svg"
   xmlns:sodipodi="http://sodipodi.sourceforge.net/DTD/sodipodi-0.dtd"
   xmlns:inkscape="http://www.inkscape.org/namespaces/inkscape"
   version="1.1"
   id="svg10"
   width="681.33331"
   height="681.33331"
   viewBox="0 0 681.33331 681.33331"
   sodipodi:docname="label_filled.svg"
   inkscape:version="0.92.4 (5da689c313, 2019-01-14)">
  <metadata
     id="metadata16">
    <rdf:RDF>
      <cc:Work
         rdf:about="">
        <dc:format>image/svg+xml</dc:format>
        <dc:type
           rdf:resource="http://purl.org/dc/dcmitype/StillImage" />
        <dc:title></dc:title>
      </cc:Work>
    </rdf:RDF>
  </metadata>
  <defs
     id="defs14" />
  <sodipodi:namedview
     pagecolor="#ffffff"
     bordercolor="#666666"
     borderopacity="1"
     objecttolerance="10"
     gridtolerance="10"
     guidetolerance="10"
     inkscape:pageopacity="0"
     inkscape:pageshadow="2"
     inkscape:window-width="1920"
     inkscape:window-height="1147"
     id="namedview12"
     showgrid="false"
     inkscape:zoom="0.71771039"
     inkscape:cx="686.44857"
     inkscape:cy="260.89739"
     inkscape:window-x="-8"
     inkscape:window-y="22"
     inkscape:window-maximized="1"
     inkscape:current-layer="svg10" />
  <path
     style="fill:#000000;stroke-width:1.33333325"
     d="M 113.70591,569.63238 8.6371157,464.5981 v -5.95997 -5.95996 L 181.64288,279.67242 354.64863,106.66666 h 107.45733 107.45735 l 0.9636,53.64893 c 0.52998,29.50691 1.20286,53.88818 1.49529,54.1806 1.14636,1.14638 8.53873,-4.87741 21.49892,-17.51869 13.50039,-13.16819 19.1901,-22.93415 26.41491,-35.92323 4.83891,-8.6996 10.3506,-25.15427 11.11,-27.72094 2.40072,-8.11399 4.61518,-35.553017 3.63029,-44.982114 -2.31909,-22.202141 -5.66536,-29.116529 -17.28312,-35.711994 -5.95731,-3.381992 -7.84471,-4.663653 -22.53468,-5.229555 -14.23808,-0.548494 -15.92045,1.060317 -23.80611,2.214024 -6.22581,0.910862 -10.89786,3.709641 -18.50814,3.709641 -11.74039,0 -17.15417,-1.736344 -23.05816,-7.395355 -3.42057,-3.278646 -3.75255,-4.337036 -3.19155,-10.175464 0.64434,-6.705629 5.49767,-10.524893 9.67588,-14.604683 2.02758,-1.979816 4.69395,-3.196812 7.19717,-4.525201 2.41229,-1.280133 4.9122,-2.423994 7.49904,-3.299296 2.86014,-0.96778 5.82984,-1.608567 8.80282,-2.136235 8.09315,-1.4364396 12.16028,-2.3566074 24.50097,-2.7865114 16.92165,-0.589487 19.78845,-0.341888 30.66667,2.6486114 28.8622,7.934435 49.17692,27.341793 57.50945,54.9408 1.83612,6.081589 2.40039,12.316425 2.35308,25.999999 -0.0729,21.104963 -1.75477,33.863123 -6.03712,50.145133 -0.84329,3.2063 -2.51551,6.13531 -3.82324,9.18184 -4.02638,9.37995 -5.95799,15.06621 -12.38548,28.00636 -1.45701,2.93333 -6.57228,11.33333 -11.36723,18.66666 -11.21926,17.15852 -38.37962,44.58311 -55.91613,56.46012 l -12.33333,8.35304 v 35.59539 35.59538 l -169,168.86016 c -92.94999,92.87307 -170.31055,169.52218 -171.91234,170.33135 -1.60178,0.80917 -5.17084,1.47121 -7.93121,1.47121 -4.87129,0 -8.10855,-3.08866 -110.08765,-105.03426 z M 459.27592,312.4163 c 4.78199,-2.55686 10.49913,-5.82978 12.1726,-7.59247 1.67347,-1.7627 4.97981,-3.20072 6.59271,-4.69535 4.83958,-2.50266 13.84225,-13.46262 12.38729,-14.70973 -1.06698,-0.91455 -11.2838,-2.94545 -24.45808,-4.8618 -17.17296,-2.498 -42.78399,-22.90456 -51.45562,-40.99921 -2.4994,-5.21539 -3.05865,-7.71326 -4.54437,-11.5868 -0.42975,-1.12045 -1.03551,-2.19285 -1.26396,-3.37095 -2.30201,-11.87133 -3.65827,-17.6462 -0.88291,-36.26666 0.42035,-2.8202 0.0932,-4.33074 -0.93696,-4.3259 -3.70828,0.0175 -9.43176,2.72807 -13.68869,5.08959 -2.30503,1.2787 -4.32674,3.0396 -6.26171,4.8296 -1.32575,1.22642 -2.53767,2.58368 -3.63244,4.02007 -0.92945,1.21948 -1.70028,2.55421 -2.47335,3.87836 -3.3334,5.70964 -6.8024,10.32168 -9.3201,17.50828 -4.26307,12.16857 -4.92926,34.1964 -1.77206,50.86549 0.57255,3.02288 2.31851,5.70509 3.67232,8.46784 1.45017,2.95939 2.58161,6.19185 4.75792,8.66666 9.77296,11.1134 20.78439,21.09356 35.86815,26.16564 18.91015,6.35872 31.90344,6.04776 45.23926,-1.08266 z m 43.59343,-66.54072 c 1.97327,-5.14225 -4.20402,-24.7527 -8.15831,-36.61543 -0.36118,-1.08352 -0.73755,-2.19979 -1.41052,-3.12259 -5.31545,-7.28876 -12.75292,-12.88133 -20.0786,-18.14578 -1.75166,-1.25879 -3.44335,-2.01628 -5.64335,-3.16677 -5.60857,-2.933 -17.70482,-6.15835 -20.62995,-6.15835 -5.33039,0 -8.07615,14.58663 -5.83438,30.99463 0.83183,6.0883 2.26426,9.28093 6.97666,15.54982 3.26146,4.3387 8.16858,9.26942 10.90473,10.95715 12.23848,7.54904 11.79146,6.75973 18.11091,9.18548 1.56779,0.60181 3.21511,0.99412 4.8639,1.31292 3.63914,0.70365 6.06883,1.30169 11.04184,1.31292 7.05544,0.016 9.22095,-0.44631 9.85707,-2.104 z"
     id="path22"
     inkscape:connector-curvature="0"
     sodipodi:nodetypes="scccccccscsaccssasccaaaassscaascscccscssccccscaascaaaacaaacccaaasssccaacc" />
</svg>
