<?xml version="1.0" encoding="UTF-8" standalone="no"?>
<!-- Created with Inkscape (http://www.inkscape.org/) -->

<svg
   xmlns:dc="http://purl.org/dc/elements/1.1/"
   xmlns:cc="http://creativecommons.org/ns#"
   xmlns:rdf="http://www.w3.org/1999/02/22-rdf-syntax-ns#"
   xmlns:svg="http://www.w3.org/2000/svg"
   xmlns="http://www.w3.org/2000/svg"
   xmlns:sodipodi="http://sodipodi.sourceforge.net/DTD/sodipodi-0.dtd"
   xmlns:inkscape="http://www.inkscape.org/namespaces/inkscape"
   version="1.1"
   id="svg52"
   width="681.33331"
   height="681.33331"
   viewBox="0 0 681.33331 681.33331"
   sodipodi:docname="label.svg"
   inkscape:version="0.92.4 (5da689c313, 2019-01-14)">
  <metadata
     id="metadata58">
    <rdf:RDF>
      <cc:Work
         rdf:about="">
        <dc:format>image/svg+xml</dc:format>
        <dc:type
           rdf:resource="http://purl.org/dc/dcmitype/StillImage" />
        <dc:title>LabelIcon</dc:title>
      </cc:Work>
    </rdf:RDF>
  </metadata>
  <defs
     id="defs56" />
  <sodipodi:namedview
     pagecolor="#ffffff"
     bordercolor="#666666"
     borderopacity="1"
     objecttolerance="10"
     gridtolerance="10"
     guidetolerance="10"
     inkscape:pageopacity="0"
     inkscape:pageshadow="2"
     inkscape:window-width="1920"
     inkscape:window-height="1147"
     id="namedview54"
     showgrid="false"
     inkscape:zoom="0.48985481"
     inkscape:cx="631.35223"
     inkscape:cy="440.68412"
     inkscape:window-x="-8"
     inkscape:window-y="22"
     inkscape:window-maximized="1"
     inkscape:current-layer="svg52" />
  <path
     style="fill:#000000;stroke-width:1.33333325"
     d="M 181.43443,646.19147 C 132.16774,592.84804 74.732569,534.95949 23.440768,486.27715 15.65192,477.8271 -2.6977771,466.94437 8.625038,451.8182 123.14602,337.29721 237.667,222.77622 352.18799,108.25524 c 24.1364,-0.41571 41.30906,-0.15127 64.86067,-0.39167 23.63678,0.28713 45.60285,0.34449 67.48254,0.0388 26.27376,-0.70126 51.20385,-0.86995 76.39349,-1.58035 2.16486,34.19893 2.24586,34.99825 3.51767,57.00172 1.40313,20.71453 1.36439,41.19539 3.034,70.18946 28.73528,-14.49146 38.34216,-31.21605 54.07514,-51.40144 12.43561,-22.03024 16.45261,-28.56893 23.03065,-51.35845 3.79991,-16.46629 7.4964,-49.732183 -3.24612,-70.757372 -6.10169,-11.942196 -18.86817,-20.503143 -31.48662,-25.044225 -9.6474,-3.471871 -17.94826,-3.087197 -27.01114,-3.102121 -9.62977,-0.01586 -18.82186,3.399735 -28.7114,3.201616 -9.31638,-0.186637 -13.47911,0.257562 -17.55102,-4.166818 -2.94455,-3.199434 -3.66199,-8.944413 -1.95161,-12.89776 2.71546,-6.276487 12.26233,-6.792006 19.05167,-7.61224 12.1967,-1.4735069 23.14617,-1.3153656 35.67649,-0.7858055 15.90663,0.6722505 32.17864,4.7370765 46.11595,12.4327975 12.49416,6.898863 24.97307,16.334167 31.45464,29.049813 8.83401,17.330697 7.35421,32.324593 6.85175,57.953335 -3.63211,25.41459 -10.14206,51.11888 -23.72189,72.22441 -19.26606,33.7814 -47.01719,62.41655 -79.87641,83.15279 0.791,19.36641 2.96039,40.98207 2.2141,60.7153 -18.49936,23.80156 -32.93224,39.74614 -55.55412,63.19413 -61.83887,63.21671 -115.37322,112.28763 -170.40876,170.98155 -41.02653,41.60189 -101.66665,103.78574 -116.3312,112.78104 -17.64245,7.75027 -17.5413,1.44008 -48.66203,-25.88228 z M 381.51187,476.08602 c 53.2688,-53.47488 106.7899,-106.70414 159.65225,-160.58034 1.43205,-20.3888 1.3171,-22.05494 1.62387,-43.50516 -21.36677,8.44544 -21.65852,6.939 -41.95026,12.85068 -10.99784,12.083 -28.72709,34.69896 -60.12277,34.72562 -19.6776,0.80304 -37.07217,-2.6755 -51.26823,-12.14856 -12.99789,-8.66745 -22.77987,-23.34562 -26.51395,-37.17304 -6.24041,-20.65994 -3.45917,-44.89454 8.76586,-61.74605 17.18059,-22.56552 37.47,-33.64255 64.77869,-33.58719 15.73074,2.54304 30.24969,6.18821 43.42744,17.49769 14.19593,10.86073 20.31815,26.29548 23.62867,44.48767 1.37114,11.01128 1.3331,11.12102 1.58861,19.80808 9.74248,-1.8802 28.80852,-8.69278 36.07068,-13.87656 -1.77389,-23.43301 -2.13114,-26.20486 -3.01626,-40.58359 -0.71454,-22.54857 -2.02502,-43.48376 -3.25464,-64.66666 -25.55641,0.48692 -44.69242,-0.2557 -68.43342,0.35289 -62.55461,0.052 -62.76495,-0.0315 -98.28289,0.15779 -22.84527,19.56562 -23.51651,23.72858 -53.92344,55.28133 -89.03811,88.67336 -178.57555,176.88 -266.273573,266.87461 82.064223,85.73021 82.066783,85.96503 172.896983,175.63699 44.68941,-44.55209 116.00536,-115.16566 160.60638,-159.8062 z m 86.30438,-192.71378 c -17.08488,-5.26198 -26.46285,-9.01316 -38.03983,-16.58362 -8.22805,-5.38052 -15.3436,-12.48959 -21.63727,-20.04211 -6.37653,-7.65196 -13.99753,-19.3213 -16.01954,-25.22475 -6.46375,9.671 -11.59903,26.84823 -8.22392,40.05338 2.84867,11.14549 12.72019,19.97739 22.31123,26.32947 7.58695,5.02478 16.96541,8.30448 26.06361,8.12286 12.5746,-0.25101 30.18313,-6.66702 35.54572,-12.65523 z m 8.48448,-26.39713 c 5.62681,-8.55426 0.96707,-27.77846 -5.83416,-39.04359 -5.098,-8.44401 -14.28803,-15.12496 -23.86143,-17.5 -10.78874,-2.67655 -25.3215,-2.96124 -32.99047,4.86588 3.0823,9.76525 11.61748,23.09667 20.63087,32.05211 6.00116,5.96257 13.72108,10.11102 21.42859,13.59819 6.52619,2.9527 11.19801,2.50506 20.6266,6.02741 z"
     id="path62"
     inkscape:connector-curvature="0"
     sodipodi:nodetypes="cccccccccccasasasssaaccccccccccccccccccccccccccccccaacaaaccaacaac" />
</svg>
