<?xml version="1.0" encoding="UTF-8" standalone="no"?>
<svg
   xmlns:dc="http://purl.org/dc/elements/1.1/"
   xmlns:cc="http://creativecommons.org/ns#"
   xmlns:rdf="http://www.w3.org/1999/02/22-rdf-syntax-ns#"
   xmlns:svg="http://www.w3.org/2000/svg"
   xmlns="http://www.w3.org/2000/svg"
   viewBox="0 0 364 354.66666"
   height="354.66666"
   width="364"
   id="svg10"
   version="1.1">
  <metadata
     id="metadata16">
    <rdf:RDF>
      <cc:Work
         rdf:about="">
        <dc:format>image/svg+xml</dc:format>
        <dc:type
           rdf:resource="http://purl.org/dc/dcmitype/StillImage" />
        <dc:title></dc:title>
      </cc:Work>
    </rdf:RDF>
  </metadata>
  <defs
     id="defs14" />
  <path
     id="path20"
     d="m 138.95708,345.27173 c -30.56233,-3.56227 -42.339229,-5.38634 -45.770967,-7.08921 -1.459368,-0.72417 -5.936962,-2.11758 -9.950211,-3.09648 l -7.296818,-1.77983 0.06567,-27.77682 c 0.04269,-18.06397 0.649012,-29.86442 1.733914,-33.74695 4.799832,-17.17721 20.088987,-32.59693 36.674542,-36.98769 2.91872,-0.77269 18.44105,-1.48528 34.49407,-1.58354 25.58519,-0.15662 30.11431,0.13553 36.69885,2.36722 14.54336,4.92915 24.4762,14.04191 32.41171,29.73574 3.53981,7.00058 3.61704,7.68322 4.20293,37.15095 l 0.59687,30.01935 -6.44121,2.38145 c -3.54266,1.30981 -7.09193,2.86948 -7.88725,3.46596 -4.67712,3.50765 -55.47799,8.578 -69.53211,6.93985 z m 92.76411,-43.97033 c -0.0574,-0.54727 -0.0162,-4.73119 0.0918,-9.29764 0.52891,-22.36602 -9.48585,-42.96727 -27.27637,-56.10991 -4.06965,-3.00642 -10.04219,-6.36673 -13.27231,-7.46734 -3.2301,-1.10061 -5.87293,-2.56806 -5.87293,-3.261 0,-0.69293 1.51154,-2.87561 3.35899,-4.85038 4.98293,-5.32641 11.06836,-18.2829 12.04499,-25.64498 l 0.85819,-6.46948 18.73449,0.0267 c 10.30396,0.0147 22.53685,0.57639 27.18418,1.24823 17.46657,2.52514 32.00612,13.35909 40.08796,29.87102 l 4.53013,9.25548 0.41629,29.88203 0.41627,29.88201 -7.71309,3.48516 c -4.56904,2.06451 -15.60464,4.90371 -27.07271,6.96515 -20.02984,3.60046 -26.33664,4.19152 -26.51589,2.48497 z M 48.078495,299.63107 c -4.543983,-0.90292 -9.030254,-1.67717 -27.860591,-4.80832 -1.459368,-0.24266 -6.424821,-1.74206 -11.0343467,-3.33196 L 0.80260491,288.60002 1.2820555,259.29579 C 1.6725316,235.42915 2.2006291,228.75546 4.1280446,223.32998 9.051518,209.47092 20.68821,197.83517 35.474891,191.98569 c 6.400573,-2.53201 10.571989,-2.96001 33.961661,-3.48461 l 26.664843,-0.59807 0.855768,6.24356 c 1.016504,7.41616 7.352597,21.13078 12.089747,26.16856 4.5168,4.8034 4.27302,5.98427 -1.59884,7.745 -7.460761,2.23717 -20.078721,11.67436 -26.837521,20.07225 -8.846663,10.99211 -13.504714,23.97441 -14.316861,39.90207 l -0.659569,12.93527 -6.124424,-0.14207 c -3.368435,-0.0781 -8.512475,-0.61661 -11.4312,-1.19658 z M 301.36159,243.07681 c -1.04861,-12.50964 -2.06797,-17.36125 -4.96856,-23.64749 -7.086,-15.35707 -17.60528,-26.04681 -32.88509,-33.41804 -3.56127,-1.71801 -6.47504,-3.75426 -6.47504,-4.52501 0,-0.77074 1.76382,-3.60515 3.91959,-6.29867 4.9887,-6.23309 8.80866,-15.10749 9.93682,-23.08487 l 0.88348,-6.24732 10.20875,-0.38615 c 5.61483,-0.21239 17.67144,-0.0649 26.79246,0.32769 15.47567,0.66617 17.11553,0.99979 24.54385,4.99336 14.15732,7.61118 22.87616,17.95765 27.43242,32.55346 2.00744,6.43079 2.41822,12.34132 2.41822,34.79515 0,26.60279 -0.0493,27.07976 -2.98507,28.94857 -5.10446,3.24919 -32.90947,9.8585 -45.5008,10.81565 l -12.00177,0.91234 z M 141.93662,229.22407 c -15.90346,-2.03735 -27.24061,-11.14546 -33.48991,-26.90539 -7.84883,-19.79365 1.53704,-44.1284 20.81972,-53.97935 5.51056,-2.81518 8.17093,-3.25623 19.64086,-3.25623 10.70925,0 14.43577,0.54071 19.32976,2.80474 7.84674,3.63003 15.13312,11.19386 19.9467,20.70625 3.2716,6.46522 3.84111,9.14349 3.84111,18.06381 0,9.3783 -0.50082,11.47424 -4.79087,20.04954 -5.94155,11.87647 -16.34528,20.41644 -26.64444,21.87131 -3.50652,0.49533 -7.27101,1.08233 -8.36553,1.30443 -1.09452,0.2221 -5.72385,-0.0745 -10.2874,-0.65911 z M 59.072104,183.58842 c -11.87277,-3.26867 -21.336246,-13.13833 -26.036776,-27.15435 -3.684612,-10.98675 -3.611478,-16.19379 0.39374,-28.0322 3.854174,-11.39194 10.878446,-19.40612 21.619171,-24.66583 5.904873,-2.89161 8.780862,-3.41308 18.823619,-3.41308 9.669983,0 13.019314,0.56418 18.179762,3.0623 14.69527,7.11386 24.39188,21.06972 24.29616,34.96828 -0.0527,7.66159 -0.3496,8.38119 -6.05945,14.68973 -3.87764,4.2842 -7.51585,10.3923 -10.27298,17.24703 -4.20462,10.45345 -4.368381,10.64771 -10.855908,12.8772 -7.761204,2.66721 -21.243023,2.85582 -30.087338,0.42092 z m 150.863136,1.38497 c -0.72968,-0.28638 -2.90099,-0.86587 -4.82513,-1.28773 -2.74344,-0.6015 -3.69136,-1.79538 -4.39236,-5.53199 -1.75312,-9.34493 -8.78403,-21.61072 -16.35263,-28.528 l -7.29058,-6.66318 0.71592,-7.8954 c 1.191,-13.13458 10.1369,-24.97448 23.90641,-31.64019 7.10644,-3.440168 22.82848,-4.217813 32.11888,-1.58866 11.87423,3.36034 24.41842,16.40449 27.29099,28.37865 2.09134,8.71769 0.99693,25.4833 -2.08573,31.95191 -3.3214,6.96955 -15.97132,19.07303 -21.7946,20.8531 -4.80943,1.47016 -24.86384,2.90419 -27.29117,1.95149 z m 65.52275,-44.53015 c -3.98878,-2.10803 -4.91075,-3.41733 -5.50002,-7.81073 -1.10672,-8.25108 -6.27246,-17.33473 -14.58343,-25.64408 -6.91654,-6.91518 -7.62694,-8.155529 -7.61169,-13.290097 0.0204,-6.866812 5.80828,-18.922416 11.98216,-24.957566 2.37703,-2.323625 7.9631,-5.947371 12.41347,-8.052769 6.75875,-3.197452 9.79144,-3.828168 18.41131,-3.829043 8.82452,-8.95e-4 11.45884,0.573991 18.18203,3.967841 20.12609,10.159616 29.05879,30.681955 22.61317,51.952324 -2.52548,8.33397 -4.04349,10.8316 -10.4511,17.19556 -5.29424,5.25817 -9.75209,8.27865 -15.17472,10.28188 -9.96621,3.6817 -23.50993,3.7652 -30.28118,0.18668 z M 123.4419,132.59013 c -0.85219,-3.58757 -3.14441,-9.89432 -5.09381,-14.01499 -1.9494,-4.12068 -3.13471,-7.9018 -2.63403,-8.40248 1.24281,-1.24281 61.24506,-1.1613 62.49126,0.0849 0.54736,0.54736 -0.89542,4.66107 -3.20618,9.14155 -2.31077,4.48047 -4.21053,9.70425 -4.22171,11.60838 -0.0362,6.17594 -1.65621,7.32935 -8.1365,5.79312 -8.83558,-2.09456 -20.97122,-1.98295 -28.32729,0.26054 -3.64841,1.11271 -7.23846,2.02956 -7.97788,2.03746 -0.73942,0.008 -2.04165,-2.92091 -2.89386,-6.50848 z m 12.5247,-26.6749 c -9.01113,-2.27444 -17.7119,-7.646949 -24.61315,-15.198011 -7.70899,-8.434862 -9.48025,-13.055001 -10.48103,-27.338573 -1.54383,-22.034212 8.67163,-39.110497 27.95606,-46.731621 9.08446,-3.590138 25.38565,-3.805282 35.01943,-0.46219 8.74327,3.034066 19.64584,12.797207 24.91652,22.312467 3.64836,6.586475 3.92378,8.061512 3.92378,21.013996 0,12.780254 -0.32154,14.564876 -3.89474,21.616885 -7.53263,14.866221 -22.2119,24.505687 -38.83751,25.503477 -4.95487,0.29737 -11.25007,-0.025 -13.98936,-0.71643 z"
     style="fill:#000000;stroke-width:1.32669485" />
</svg>
