<?xml version="1.0" standalone="no"?>
<!DOCTYPE svg PUBLIC "-//W3C//DTD SVG 20010904//EN"
 "http://www.w3.org/TR/2001/REC-SVG-20010904/DTD/svg10.dtd">
<svg version="1.0" xmlns="http://www.w3.org/2000/svg"
 width="100.000000pt" height="100.000000pt" viewBox="0 0 100.000000 100.000000"
 preserveAspectRatio="xMidYMid meet">
<metadata>
Created by potrace 1.11, written by Peter Selinger 2001-2013
</metadata>
<g transform="translate(0.000000,100.000000) scale(0.100000,-0.100000)"
fill="#000000" stroke="none">
<path d="M249 903 c-198 -185 -159 -520 77 -659 45 -26 127 -54 162 -54 12 0
23 -3 23 -7 8 -45 5 -54 -20 -59 -134 -30 -158 -41 -149 -66 4 -10 46 -13 192
-12 103 1 189 4 193 7 22 22 -59 63 -139 69 -16 1 -29 8 -29 15 -5 46 -5 46
58 59 70 14 163 60 163 80 0 24 -18 24 -61 0 -122 -68 -277 -61 -393 15 -57
38 -99 88 -133 159 -23 47 -27 69 -27 150 -1 86 2 101 30 160 19 39 52 85 84
116 47 46 58 74 29 74 -5 0 -32 -21 -60 -47z"/>
<path d="M428 922 c-148 -54 -237 -189 -226 -340 14 -199 184 -337 379 -310
167 23 291 168 290 340 0 37 -4 75 -10 85 -5 10 -15 33 -22 52 -18 47 -105
133 -164 160 -67 31 -182 38 -247 13z m166 -30 l30 -8 -32 -23 -32 -22 -45 26
c-25 15 -45 28 -45 29 0 7 99 5 124 -2z m161 -92 c6 -14 -17 -37 -63 -62 -22
-11 -27 -9 -58 26 -19 21 -34 42 -34 46 0 4 17 19 38 32 l37 25 37 -26 c21
-14 40 -33 43 -41z m-262 31 l29 -18 -30 -22 c-17 -11 -34 -21 -40 -21 -9 0
-62 73 -62 86 0 11 74 -7 103 -25z m-86 -94 c-3 -7 -19 -20 -36 -30 -23 -14
-31 -15 -32 -5 0 7 -2 27 -5 45 -2 18 1 44 6 59 l10 26 31 -42 c17 -23 28 -47
26 -53z m192 8 c17 -20 31 -39 31 -44 0 -4 -20 -22 -44 -39 l-43 -31 -32 44
c-17 24 -31 47 -31 52 0 10 61 52 76 52 7 1 26 -15 43 -34z m-302 -31 c2 -20
5 -40 6 -45 1 -5 -13 -19 -32 -31 l-34 -22 6 34 c7 45 36 114 44 106 4 -3 8
-22 10 -42z m519 -16 l17 -51 -34 -28 c-19 -16 -39 -29 -45 -29 -6 0 -21 23
-34 51 -21 45 -22 52 -9 60 9 4 27 17 40 28 36 30 46 26 65 -31z m-343 -37
c15 -22 27 -43 27 -48 0 -5 -20 -24 -44 -41 l-44 -32 -20 34 c-37 63 -37 72 5
100 21 14 40 26 43 26 3 0 17 -18 33 -39z m215 -45 c12 -24 22 -47 22 -52 -1
-5 -18 -21 -40 -36 l-39 -27 -31 44 c-16 24 -30 47 -30 52 1 10 71 61 86 62 6
1 20 -19 32 -43z m-340 -41 c12 -25 22 -49 22 -54 0 -6 -20 -24 -45 -41 l-45
-31 -15 33 c-29 71 -28 81 12 110 21 15 40 27 43 27 3 0 15 -20 28 -44z m478
-25 c-3 -22 -14 -56 -23 -76 l-18 -36 -11 49 c-11 47 -10 49 20 76 16 15 32
27 34 27 3 0 2 -18 -2 -40z m-263 -19 c15 -22 27 -44 27 -50 0 -6 -17 -22 -37
-36 l-38 -26 -37 40 c-21 22 -38 44 -38 48 0 8 79 63 90 63 3 0 17 -18 33 -39z
m173 -53 c3 -38 -5 -98 -15 -98 -8 0 -61 76 -61 87 1 9 63 51 69 47 2 -2 5
-18 7 -36z m-295 -40 l37 -42 -39 -29 c-38 -28 -40 -28 -65 -12 -40 26 -64 49
-64 60 0 9 77 64 89 65 3 0 21 -19 42 -42z m212 -37 c15 -22 27 -42 27 -45 0
-13 -53 -5 -91 15 l-41 20 33 25 c18 13 35 24 38 24 3 0 18 -18 34 -39z m-69
-75 c31 -11 11 -18 -53 -17 -80 0 -90 7 -50 37 31 23 33 23 58 5 14 -10 35
-21 45 -25z"/>
</g>
</svg>
